<svg width="12" height="12" viewBox="0 0 12 12" fill="none" xmlns="http://www.w3.org/2000/svg"><path d="M10.47.057a1.22 1.22 0 0 1 1.22 1.22v8.535a1.22 1.22 0 0 1-1.22 1.22H1.934a1.22 1.22 0 0 1-1.22-1.22V1.276a1.22 1.22 0 0 1 1.22-1.22zm0 1.22H1.934v8.535h8.536zM6.225 2.94a.615.615 0 0 1 1.128-.112l.031.067 1.06 2.65h.807a.61.61 0 0 1 .071 1.214l-.071.005H8.036a.62.62 0 0 1-.54-.32l-.032-.067-.581-1.453L5.874 8.15a.616.616 0 0 1-1.102.155l-.036-.064-.74-1.478h-.842a.61.61 0 0 1-.072-1.216l.072-.004h1.215c.208 0 .4.104.513.274l.038.067.237.473z" fill="url(#a)"/><defs><linearGradient id="a" x1="6.107" y1="-.003" x2="6.107" y2="13.34" gradientUnits="userSpaceOnUse"><stop stop-color="#EB7C49"/><stop offset="1" stop-color="#F04F52"/></linearGradient></defs></svg>