<svg width="26" height="26" viewBox="0 0 26 26" fill="none" xmlns="http://www.w3.org/2000/svg">
<circle cx="12.8552" cy="13.3871" r="12.45" fill="#ECECEC"/>
<path d="M9.32382 13.7316H16.3866V15.0581H17.0757V13.0426H13.1997V11.6645H12.5107V13.0426H8.63477V15.0581H9.32382V13.7316Z" fill="#C7C7C7"/>
<path d="M11.1328 15.5404H6.82616C6.35047 15.5404 5.96484 15.926 5.96484 16.4017V18.9856C5.96484 19.4613 6.35047 19.847 6.82616 19.847H11.1328C11.6084 19.847 11.9941 19.4613 11.9941 18.9856V16.4017C11.9941 15.926 11.6084 15.5404 11.1328 15.5404Z" fill="#C7C7C7"/>
<path d="M18.8847 15.5404H14.5781C14.1024 15.5404 13.7168 15.926 13.7168 16.4017V18.9856C13.7168 19.4613 14.1024 19.847 14.5781 19.847H18.8847C19.3604 19.847 19.746 19.4613 19.746 18.9856V16.4017C19.746 15.926 19.3604 15.5404 18.8847 15.5404Z" fill="#C7C7C7"/>
<path d="M15.0087 6.92725H10.7021C10.2264 6.92725 9.84082 7.31287 9.84082 7.78856V10.3725C9.84082 10.8482 10.2264 11.2338 10.7021 11.2338H15.0087C15.4844 11.2338 15.87 10.8482 15.87 10.3725V7.78856C15.87 7.31287 15.4844 6.92725 15.0087 6.92725Z" fill="#C7C7C7"/>
</svg>
