<svg width="12" height="12" viewBox="0 0 12 12" fill="none" xmlns="http://www.w3.org/2000/svg"><path d="M1.408 6.494h3.658c.335 0 .61-.275.61-.61V1.006a.61.61 0 0 0-.61-.61H1.408a.61.61 0 0 0-.61.61v4.878c0 .335.274.61.61.61m0 4.877h3.658c.335 0 .61-.274.61-.61V8.324a.61.61 0 0 0-.61-.61H1.408a.61.61 0 0 0-.61.61v2.439c0 .335.274.61.61.61m6.097 0h3.658c.335 0 .61-.274.61-.61V5.885a.61.61 0 0 0-.61-.61H7.505a.61.61 0 0 0-.61.61v4.878c0 .335.274.61.61.61m-.61-10.365v2.44c0 .334.274.609.61.609h3.658c.335 0 .61-.274.61-.61V1.006a.61.61 0 0 0-.61-.61H7.505a.61.61 0 0 0-.61.61" fill="#CBCBCB"/></svg>