<svg width="80" height="23" viewBox="0 0 80 23" fill="none" xmlns="http://www.w3.org/2000/svg"><rect width="5.894" height="10.387" rx="1.244" transform="rotate(44.744 4.135 15.05)skewX(.013)" fill="url(#a)"/><g filter="url(#b)"><rect x="9.794" y="22.382" width="5.894" height="10.364" rx="1.244" transform="rotate(-135.262 9.794 22.382)" fill="url(#c)"/></g><rect width="5.915" height="4.408" rx="1.244" transform="rotate(44.744 -10.291 9.15)skewX(.013)" fill="url(#d)"/><rect x="18.119" y="13.936" width="5.92" height="4.44" rx="1.244" transform="rotate(-135.262 18.12 13.936)" fill="url(#e)"/><path d="M25.329 17.455V8.089h2.14V9.65h.098q.255-.81.878-1.25a2.4 2.4 0 0 1 1.433-.445q.183 0 .408.018.232.013.384.043v2.03a2.3 2.3 0 0 0-.445-.085 4 4 0 0 0-.58-.043q-.602 0-1.084.262a1.9 1.9 0 0 0-.75.714 2 2 0 0 0-.275 1.055v5.506zm10.568.183q-1.409 0-2.433-.586a3.96 3.96 0 0 1-1.567-1.67q-.548-1.086-.548-2.555 0-1.446.548-2.537a4.15 4.15 0 0 1 1.55-1.707q.993-.615 2.334-.616.866 0 1.635.28.774.275 1.365.854.598.579.94 1.476.34.89.34 2.122v.677h-7.676v-1.488h5.561a2.4 2.4 0 0 0-.274-1.128 2 2 0 0 0-.75-.787 2.1 2.1 0 0 0-1.11-.286q-.677 0-1.19.329a2.27 2.27 0 0 0-.798.853q-.28.525-.286 1.153v1.299q0 .817.298 1.402.3.58.836.89.536.306 1.256.305.48 0 .872-.134.39-.14.677-.409a1.7 1.7 0 0 0 .432-.664l2.061.232a3.2 3.2 0 0 1-.743 1.426 3.6 3.6 0 0 1-1.39.94q-.849.329-1.94.329m10.117 0q-1.401 0-2.408-.616a4.1 4.1 0 0 1-1.543-1.701q-.536-1.091-.536-2.513 0-1.426.548-2.518.55-1.097 1.55-1.707 1.006-.615 2.377-.616 1.14 0 2.018.42.885.416 1.409 1.178.525.756.597 1.768h-2.11a2 2 0 0 0-.609-1.128q-.476-.457-1.274-.457-.678 0-1.19.365-.51.36-.798 1.037-.28.677-.28 1.622 0 .957.28 1.646.281.683.786 1.055.512.366 1.202.366.487 0 .872-.183.39-.189.652-.543t.36-.86h2.11a3.7 3.7 0 0 1-.586 1.763 3.47 3.47 0 0 1-1.378 1.195q-.872.426-2.049.427m9.91 0q-1.371 0-2.378-.604a4.1 4.1 0 0 1-1.56-1.69q-.55-1.084-.55-2.536t.55-2.542a4.1 4.1 0 0 1 1.56-1.695q1.007-.604 2.378-.604 1.373 0 2.378.604 1.006.603 1.555 1.695.555 1.091.555 2.542 0 1.452-.555 2.537a4.06 4.06 0 0 1-1.555 1.689q-1.005.603-2.378.604m.012-1.769q.744 0 1.244-.408.501-.415.744-1.11.25-.695.25-1.549 0-.86-.25-1.554-.243-.702-.744-1.116-.5-.415-1.244-.415-.761 0-1.268.415-.5.414-.75 1.116a4.7 4.7 0 0 0-.244 1.554q0 .854.244 1.55.25.694.75 1.109.506.408 1.268.408m6.35 1.586V8.089h2.14V9.65h.097q.256-.81.878-1.25a2.4 2.4 0 0 1 1.433-.445q.183 0 .409.018.231.013.384.043v2.03a2.3 2.3 0 0 0-.445-.085 4 4 0 0 0-.58-.043q-.603 0-1.085.262a1.9 1.9 0 0 0-.75.714 2 2 0 0 0-.274 1.055v5.506zm9.897.164a3.54 3.54 0 0 1-1.976-.567q-.87-.567-1.378-1.646-.506-1.08-.506-2.622 0-1.56.513-2.634.517-1.08 1.396-1.628a3.6 3.6 0 0 1 1.957-.555q.823 0 1.354.28.53.275.841.665.31.384.482.726h.091v-4.67h2.214v12.487H75v-1.476h-.134a3.8 3.8 0 0 1-.494.726q-.323.378-.854.646t-1.335.268m.616-1.81q.701 0 1.195-.379.495-.384.75-1.067T75 12.772q0-.909-.256-1.58-.25-.67-.744-1.042-.488-.372-1.201-.372-.738 0-1.232.384t-.744 1.061-.25 1.549q0 .878.25 1.567.257.682.75 1.08.5.39 1.226.39" fill="#121212"/><defs><linearGradient id="a" x1="2.896" y1="-.057" x2="2.896" y2="12.572" gradientUnits="userSpaceOnUse"><stop stop-color="#EB7C49"/><stop offset="1" stop-color="#F04F52"/></linearGradient><linearGradient id="c" x1="12.69" y1="22.325" x2="12.69" y2="34.925" gradientUnits="userSpaceOnUse"><stop stop-color="#EB7C49"/><stop offset="1" stop-color="#F04F52"/></linearGradient><linearGradient id="d" x1="2.906" y1="-.024" x2="2.906" y2="5.335" gradientUnits="userSpaceOnUse"><stop stop-color="#EB7C49"/><stop offset="1" stop-color="#F04F52"/></linearGradient><linearGradient id="e" x1="21.028" y1="13.912" x2="21.028" y2="19.309" gradientUnits="userSpaceOnUse"><stop stop-color="#EB7C49"/><stop offset="1" stop-color="#F04F52"/></linearGradient><filter id="b" x="5.975" y="11.386" width="10.747" height="10.776" filterUnits="userSpaceOnUse" color-interpolation-filters="sRGB"><feFlood flood-opacity="0" result="BackgroundImageFix"/><feColorMatrix in="SourceAlpha" values="0 0 0 0 0 0 0 0 0 0 0 0 0 0 0 0 0 0 127 0" result="hardAlpha"/><feOffset dy=".148"/><feGaussianBlur stdDeviation=".074"/><feComposite in2="hardAlpha" operator="out"/><feColorMatrix values="0 0 0 0 0 0 0 0 0 0 0 0 0 0 0 0 0 0 0.25 0"/><feBlend in2="BackgroundImageFix" result="effect1_dropShadow_190_1741"/><feBlend in="SourceGraphic" in2="effect1_dropShadow_190_1741" result="shape"/></filter></defs></svg>