<svg width="7" height="7" viewBox="0 0 7 7" fill="none" xmlns="http://www.w3.org/2000/svg">
<path d="M1.25039 3.59639C0.952995 3.54471 0.952995 3.11768 1.25039 3.06599C1.77696 2.97435 2.2643 2.72797 2.6503 2.35827C3.0363 1.98857 3.30346 1.5123 3.41772 0.990169L3.43551 0.907983C3.49991 0.613978 3.91846 0.612284 3.98539 0.905441L4.00742 1.00118C4.12608 1.52095 4.39566 1.99407 4.78232 2.36112C5.16897 2.72818 5.65546 2.97281 6.18069 3.0643C6.47977 3.11598 6.47977 3.54555 6.18069 3.59808C5.65557 3.68951 5.16916 3.93402 4.78252 4.30091C4.39587 4.66781 4.12623 5.14075 4.00742 5.66035L3.98539 5.75525C3.91846 6.0484 3.49991 6.04671 3.43551 5.75271L3.41857 5.67137C3.30419 5.14901 3.03678 4.67257 2.65046 4.30285C2.26413 3.93312 1.77642 3.68688 1.24954 3.59554L1.25039 3.59639Z" stroke="url(#paint0_linear_4_746)" stroke-width="0.847276" stroke-linecap="round" stroke-linejoin="round"/>
<defs>
<linearGradient id="paint0_linear_4_746" x1="3.66957" y1="0.657498" x2="3.66957" y2="7.08641" gradientUnits="userSpaceOnUse">
<stop stop-color="#EB7C49"/>
<stop offset="1" stop-color="#F04F52"/>
</linearGradient>
</defs>
</svg>
