<svg width="11" height="11" viewBox="0 0 11 11" fill="none" xmlns="http://www.w3.org/2000/svg">
<path d="M0.427734 8.98619V10.4849C0.427734 10.5716 0.462165 10.6547 0.523452 10.716C0.584738 10.7773 0.667861 10.8117 0.754533 10.8117H2.2565C2.34301 10.8117 2.42597 10.7774 2.48722 10.7163L8.66241 4.54108L6.70161 2.58029L0.523813 8.75547C0.462483 8.81661 0.427926 8.8996 0.427734 8.98619ZM7.51077 1.77048L9.47156 3.73127L10.4258 2.77702C10.5483 2.65445 10.6172 2.48824 10.6172 2.31493C10.6172 2.14162 10.5483 1.9754 10.4258 1.85283L9.38986 0.816227C9.26729 0.693696 9.10108 0.624863 8.92777 0.624863C8.75446 0.624863 8.58824 0.693696 8.46567 0.816227L7.51077 1.77048Z" fill="#8F8F8F"/>
</svg>
