<svg width="70" height="21" viewBox="0 0 70 21" fill="none" xmlns="http://www.w3.org/2000/svg">
<rect width="5.01181" height="8.8317" rx="1.05737" transform="matrix(0.710255 0.703944 -0.703789 0.710409 10.6509 2.24393)" fill="url(#paint0_linear_27_415)"/>
<g filter="url(#filter0_d_27_415)">
<rect x="8.95361" y="20.0425" width="5.01162" height="8.81214" rx="1.05737" transform="rotate(-135.262 8.95361 20.0425)" fill="url(#paint1_linear_27_415)"/>
</g>
<rect width="5.02985" height="3.74799" rx="1.05737" transform="matrix(0.710255 0.703944 -0.703789 0.710409 3.56494 9.42482)" fill="url(#paint2_linear_27_415)"/>
<rect x="16.0303" y="12.8607" width="5.03352" height="3.77495" rx="1.05737" transform="rotate(-135.262 16.0303 12.8607)" fill="url(#paint3_linear_27_415)"/>
<path d="M23.1029 14.9516V6.91234H24.94V8.25222H25.0237C25.1703 7.78815 25.4215 7.4305 25.7774 7.17927C26.1368 6.92455 26.5468 6.7972 27.0074 6.7972C27.1121 6.7972 27.2289 6.80243 27.3581 6.8129C27.4906 6.81988 27.6006 6.83209 27.6878 6.84953V8.59242C27.6075 8.56451 27.4802 8.54008 27.3057 8.51915C27.1347 8.49472 26.969 8.48251 26.8085 8.48251C26.4631 8.48251 26.1525 8.55753 25.8769 8.70757C25.6047 8.85412 25.3901 9.05824 25.2331 9.31993C25.0761 9.58163 24.9976 9.88345 24.9976 10.2254V14.9516H23.1029ZM32.1745 15.1086C31.3685 15.1086 30.6724 14.9411 30.0862 14.6062C29.5035 14.2677 29.0551 13.7897 28.7411 13.1721C28.4271 12.551 28.2701 11.82 28.2701 10.9791C28.2701 10.1521 28.4271 9.42635 28.7411 8.80178C29.0586 8.17371 29.5018 7.68521 30.0705 7.33629C30.6393 6.98387 31.3075 6.80766 32.0751 6.80766C32.5706 6.80766 33.0381 6.88792 33.4778 7.04842C33.9209 7.20544 34.3117 7.44969 34.6502 7.78117C34.9921 8.11265 35.2608 8.53485 35.4562 9.04777C35.6516 9.5572 35.7493 10.1643 35.7493 10.8692V11.4501H29.1598V10.1731H33.9331C33.9296 9.81017 33.8511 9.48742 33.6976 9.20479C33.5441 8.91867 33.3295 8.69361 33.0538 8.52961C32.7817 8.36562 32.4642 8.28362 32.1013 8.28362C31.714 8.28362 31.3738 8.37783 31.0807 8.56625C30.7876 8.75118 30.559 8.99543 30.395 9.299C30.2345 9.59907 30.1525 9.92881 30.149 10.2882V11.403C30.149 11.8706 30.2345 12.2718 30.4055 12.6068C30.5765 12.9383 30.8155 13.193 31.1225 13.371C31.4296 13.5454 31.789 13.6327 32.2007 13.6327C32.4764 13.6327 32.7258 13.5943 32.9492 13.5175C33.1725 13.4373 33.3661 13.3204 33.5301 13.1668C33.6941 13.0133 33.818 12.8231 33.9017 12.5963L35.6708 12.7952C35.5591 13.2628 35.3463 13.671 35.0322 14.02C34.7217 14.3654 34.3239 14.6341 33.8389 14.826C33.3539 15.0144 32.7991 15.1086 32.1745 15.1086ZM40.8589 15.1086C40.0563 15.1086 39.3672 14.9324 38.7915 14.58C38.2192 14.2276 37.7779 13.7408 37.4673 13.1197C37.1603 12.4952 37.0067 11.7764 37.0067 10.9634C37.0067 10.1469 37.1637 9.42635 37.4778 8.80178C37.7918 8.17371 38.235 7.68521 38.8072 7.33629C39.3829 6.98387 40.0633 6.80766 40.8484 6.80766C41.5009 6.80766 42.0784 6.92804 42.5808 7.1688C43.0868 7.40607 43.4898 7.74279 43.7899 8.17894C44.0899 8.61161 44.2609 9.11755 44.3028 9.69677H42.4918C42.4186 9.30946 42.2441 8.98671 41.9685 8.7285C41.6963 8.46681 41.3317 8.33596 40.8746 8.33596C40.4873 8.33596 40.1471 8.44064 39.854 8.64999C39.5609 8.85586 39.3323 9.15245 39.1683 9.53976C39.0078 9.92706 38.9276 10.3911 38.9276 10.932C38.9276 11.4798 39.0078 11.9508 39.1683 12.3451C39.3288 12.7359 39.5539 13.0377 39.8435 13.2506C40.1366 13.4599 40.4803 13.5646 40.8746 13.5646C41.1537 13.5646 41.4032 13.5123 41.623 13.4076C41.8463 13.2994 42.033 13.1442 42.183 12.9418C42.3331 12.7394 42.436 12.4934 42.4918 12.2038H44.3028C44.2574 12.7726 44.0899 13.2768 43.8003 13.7164C43.5107 14.1526 43.1164 14.4945 42.6175 14.7422C42.1185 14.9865 41.5323 15.1086 40.8589 15.1086ZM49.3653 15.1086C48.5802 15.1086 47.8998 14.9359 47.324 14.5905C46.7483 14.245 46.3017 13.7618 45.9842 13.1407C45.6701 12.5196 45.5131 11.7938 45.5131 10.9634C45.5131 10.1329 45.6701 9.40542 45.9842 8.78084C46.3017 8.15626 46.7483 7.67126 47.324 7.32582C47.8998 6.98038 48.5802 6.80766 49.3653 6.80766C50.1503 6.80766 50.8307 6.98038 51.4065 7.32582C51.9822 7.67126 52.4271 8.15626 52.7411 8.78084C53.0586 9.40542 53.2174 10.1329 53.2174 10.9634C53.2174 11.7938 53.0586 12.5196 52.7411 13.1407C52.4271 13.7618 51.9822 14.245 51.4065 14.5905C50.8307 14.9359 50.1503 15.1086 49.3653 15.1086ZM49.3757 13.5908C49.8014 13.5908 50.1573 13.4739 50.4434 13.2401C50.7296 13.0028 50.9424 12.6853 51.082 12.2875C51.225 11.8898 51.2966 11.4466 51.2966 10.9581C51.2966 10.4662 51.225 10.0213 51.082 9.6235C50.9424 9.22223 50.7296 8.90296 50.4434 8.66569C50.1573 8.42843 49.8014 8.30979 49.3757 8.30979C48.9396 8.30979 48.5767 8.42843 48.2871 8.66569C48.001 8.90296 47.7864 9.22223 47.6433 9.6235C47.5037 10.0213 47.434 10.4662 47.434 10.9581C47.434 11.4466 47.5037 11.8898 47.6433 12.2875C47.7864 12.6853 48.001 13.0028 48.2871 13.2401C48.5767 13.4739 48.9396 13.5908 49.3757 13.5908ZM54.8255 14.9516V6.91234H56.6626V8.25222H56.7464C56.8929 7.78815 57.1441 7.4305 57.5 7.17927C57.8594 6.92455 58.2694 6.7972 58.73 6.7972C58.8347 6.7972 58.9516 6.80243 59.0807 6.8129C59.2133 6.81988 59.3232 6.83209 59.4104 6.84953V8.59242C59.3302 8.56451 59.2028 8.54008 59.0283 8.51915C58.8574 8.49472 58.6916 8.48251 58.5311 8.48251C58.1857 8.48251 57.8751 8.55753 57.5995 8.70757C57.3273 8.85412 57.1127 9.05824 56.9557 9.31993C56.7987 9.58163 56.7202 9.88345 56.7202 10.2254V14.9516H54.8255ZM63.3214 15.0929C62.6899 15.0929 62.1246 14.9307 61.6256 14.6062C61.1267 14.2817 60.7324 13.8106 60.4428 13.193C60.1532 12.5754 60.0084 11.8252 60.0084 10.9424C60.0084 10.0492 60.1549 9.29551 60.448 8.6814C60.7446 8.0638 61.1441 7.59798 61.6466 7.28395C62.149 6.96643 62.7091 6.80766 63.3267 6.80766C63.7977 6.80766 64.185 6.88792 64.4886 7.04842C64.7922 7.20544 65.0329 7.3956 65.2109 7.61892C65.3888 7.83874 65.5266 8.04635 65.6243 8.24175H65.7029V4.23259H67.6028V14.9516H65.7395V13.685H65.6243C65.5266 13.8804 65.3853 14.088 65.2004 14.3078C65.0155 14.5242 64.7712 14.7091 64.4677 14.8626C64.1641 15.0162 63.782 15.0929 63.3214 15.0929ZM63.8501 13.5384C64.2513 13.5384 64.5933 13.4303 64.8759 13.2139C65.1585 12.9941 65.3731 12.6888 65.5197 12.298C65.6662 11.9072 65.7395 11.4519 65.7395 10.932C65.7395 10.4121 65.6662 9.96021 65.5197 9.57639C65.3766 9.19257 65.1638 8.89424 64.8811 8.6814C64.602 8.46855 64.2583 8.36213 63.8501 8.36213C63.4279 8.36213 63.0754 8.47204 62.7928 8.69186C62.5102 8.91169 62.2973 9.21525 62.1543 9.60256C62.0112 9.98987 61.9397 10.433 61.9397 10.932C61.9397 11.4344 62.0112 11.8828 62.1543 12.2771C62.3008 12.6679 62.5154 12.9767 62.798 13.2035C63.0842 13.4268 63.4348 13.5384 63.8501 13.5384Z" fill="#121212"/>
<defs>
<filter id="filter0_d_27_415" x="5.70573" y="10.6934" width="9.13835" height="9.16278" filterUnits="userSpaceOnUse" color-interpolation-filters="sRGB">
<feFlood flood-opacity="0" result="BackgroundImageFix"/>
<feColorMatrix in="SourceAlpha" type="matrix" values="0 0 0 0 0 0 0 0 0 0 0 0 0 0 0 0 0 0 127 0" result="hardAlpha"/>
<feOffset dy="0.125818"/>
<feGaussianBlur stdDeviation="0.0629088"/>
<feComposite in2="hardAlpha" operator="out"/>
<feColorMatrix type="matrix" values="0 0 0 0 0 0 0 0 0 0 0 0 0 0 0 0 0 0 0.25 0"/>
<feBlend mode="normal" in2="BackgroundImageFix" result="effect1_dropShadow_27_415"/>
<feBlend mode="normal" in="SourceGraphic" in2="effect1_dropShadow_27_415" result="shape"/>
</filter>
<linearGradient id="paint0_linear_27_415" x1="2.46248" y1="-0.0484797" x2="2.46248" y2="10.6894" gradientUnits="userSpaceOnUse">
<stop stop-color="#EB7C49"/>
<stop offset="1" stop-color="#F04F52"/>
</linearGradient>
<linearGradient id="paint1_linear_27_415" x1="11.416" y1="19.9942" x2="11.416" y2="30.7083" gradientUnits="userSpaceOnUse">
<stop stop-color="#EB7C49"/>
<stop offset="1" stop-color="#F04F52"/>
</linearGradient>
<linearGradient id="paint2_linear_27_415" x1="2.47134" y1="-0.0205738" x2="2.47134" y2="4.53638" gradientUnits="userSpaceOnUse">
<stop stop-color="#EB7C49"/>
<stop offset="1" stop-color="#F04F52"/>
</linearGradient>
<linearGradient id="paint3_linear_27_415" x1="18.5034" y1="12.84" x2="18.5034" y2="17.4297" gradientUnits="userSpaceOnUse">
<stop stop-color="#EB7C49"/>
<stop offset="1" stop-color="#F04F52"/>
</linearGradient>
</defs>
</svg>
