<svg width="20" height="20" viewBox="0 0 14 14" fill="none" xmlns="http://www.w3.org/2000/svg"><g clip-path="url(#a)" stroke-width="1.061" stroke-linecap="round" stroke-linejoin="round"><path d="M10.936 7.195V12.5h-8.49V7.195" stroke="url(#b)"/><path d="M11.997 4.542H1.385v2.653h10.612z" stroke="url(#c)"/><path d="M6.691 12.5V4.543" stroke="url(#d)"/><path d="M6.691 4.542H9.08a1.326 1.326 0 1 0 0-2.653c-1.857 0-2.388 2.653-2.388 2.653" stroke="url(#e)"/><path d="M6.691 4.542H4.304a1.326 1.326 0 1 1 0-2.653c1.857 0 2.387 2.653 2.387 2.653" stroke="url(#f)"/></g><defs><linearGradient id="b" x1="6.618" y1="7.166" x2="6.618" y2="13.617" gradientUnits="userSpaceOnUse"><stop stop-color="#EB7C49"/><stop offset="1" stop-color="#F04F52"/></linearGradient><linearGradient id="c" x1="6.599" y1="4.527" x2="6.599" y2="7.753" gradientUnits="userSpaceOnUse"><stop stop-color="#EB7C49"/><stop offset="1" stop-color="#F04F52"/></linearGradient><linearGradient id="d" x1="7.183" y1="4.498" x2="7.183" y2="14.175" gradientUnits="userSpaceOnUse"><stop stop-color="#EB7C49"/><stop offset="1" stop-color="#F04F52"/></linearGradient><linearGradient id="e" x1="8.516" y1="1.874" x2="8.516" y2="5.1" gradientUnits="userSpaceOnUse"><stop stop-color="#EB7C49"/><stop offset="1" stop-color="#F04F52"/></linearGradient><linearGradient id="f" x1="4.802" y1="1.874" x2="4.802" y2="5.1" gradientUnits="userSpaceOnUse"><stop stop-color="#EB7C49"/><stop offset="1" stop-color="#F04F52"/></linearGradient><clipPath id="a"><path fill="#fff" d="M.324.828h12.734v12.734H.324z"/></clipPath></defs></svg>