<svg width="12" height="13" viewBox="0 0 12 13" fill="none" xmlns="http://www.w3.org/2000/svg"><path d="M5.859.96A5.557 5.557 0 0 0 .304 6.517a5.557 5.557 0 0 0 5.555 5.554 5.557 5.557 0 0 0 5.555-5.554A5.557 5.557 0 0 0 5.859.96m0 10a4.45 4.45 0 0 1-4.444-4.444 4.45 4.45 0 0 1 4.444-4.444 4.45 4.45 0 0 1 4.444 4.444 4.45 4.45 0 0 1-4.444 4.444m-.556-2.222h1.111v1.11h-1.11zm.894-5.533a2.22 2.22 0 0 0-2.46 1.55c-.1.322.144.65.483.65h.111c.228 0 .411-.162.489-.373a1.11 1.11 0 0 1 1.278-.71c.527.11.916.627.872 1.166-.056.744-.9.905-1.361 1.6 0 .005-.006.005-.006.01-.005.012-.011.018-.017.029-.05.083-.1.177-.138.277-.006.017-.017.028-.023.045-.005.01-.005.022-.01.039a2 2 0 0 0-.112.694h1.111c0-.233.061-.428.156-.594.01-.017.016-.034.027-.05.045-.078.1-.15.156-.217.006-.006.011-.017.017-.022q.083-.099.183-.19c.533-.505 1.255-.916 1.105-1.977-.133-.966-.894-1.783-1.86-1.927" fill="#121212"/></svg>