<svg width="7" height="7" viewBox="0 0 7 7" fill="none" xmlns="http://www.w3.org/2000/svg">
<path d="M3.3136 1.88304C3.39817 1.88304 3.47927 1.91664 3.53907 1.97643C3.59887 2.03623 3.63246 2.11734 3.63246 2.2019C3.63246 2.28647 3.59887 2.36758 3.53907 2.42737C3.47927 2.48717 3.39817 2.52077 3.3136 2.52077H1.40042V6.02826H4.90791V4.11508C4.90791 4.03051 4.94151 3.94941 5.0013 3.88961C5.0611 3.82981 5.14221 3.79622 5.22677 3.79622C5.31134 3.79622 5.39245 3.82981 5.45224 3.88961C5.51204 3.94941 5.54564 4.03051 5.54564 4.11508V6.02826C5.54564 6.19739 5.47845 6.3596 5.35885 6.4792C5.23925 6.59879 5.07705 6.66598 4.90791 6.66598H1.40042C1.23129 6.66598 1.06908 6.59879 0.949481 6.4792C0.829884 6.3596 0.762695 6.19739 0.762695 6.02826V2.52077C0.762695 2.35163 0.829884 2.18942 0.949481 2.06983C1.06908 1.95023 1.23129 1.88304 1.40042 1.88304H3.3136ZM6.18336 0.926453C6.26793 0.926453 6.34903 0.960047 6.40883 1.01985C6.46863 1.07964 6.50223 1.16075 6.50223 1.24532V2.83963C6.50223 2.9242 6.46863 3.0053 6.40883 3.0651C6.34903 3.1249 6.26793 3.15849 6.18336 3.15849C6.09879 3.15849 6.01769 3.1249 5.95789 3.0651C5.89809 3.0053 5.8645 2.9242 5.8645 2.83963V2.01505L3.22017 4.65938C3.16003 4.71746 3.07949 4.7496 2.99588 4.74888C2.91228 4.74815 2.8323 4.71461 2.77318 4.6555C2.71406 4.59638 2.68053 4.5164 2.6798 4.4328C2.67908 4.34919 2.71122 4.26865 2.7693 4.20851L5.41363 1.56418H4.58905C4.50448 1.56418 4.42338 1.53058 4.36358 1.47079C4.30378 1.41099 4.27019 1.32988 4.27019 1.24532C4.27019 1.16075 4.30378 1.07964 4.36358 1.01985C4.42338 0.960047 4.50448 0.926453 4.58905 0.926453H6.18336Z" fill="url(#paint0_linear_119_527)"/>
<defs>
<linearGradient id="paint0_linear_119_527" x1="3.58273" y1="0.894947" x2="3.58273" y2="7.87329" gradientUnits="userSpaceOnUse">
<stop stop-color="#EB7C49"/>
<stop offset="1" stop-color="#F04F52"/>
</linearGradient>
</defs>
</svg>
