<svg
  width="335"
  height="213"
  viewBox="0 0 335 213"
  fill="none"
  xmlns="http://www.w3.org/2000/svg"
>
  <g clip-path="url(#clip0_30_800)">
    <path
      d="M19.5579 212.066C14.4144 211.642 9.8734 207.921 7.29095 203.453C6.42492 201.955 5.83154 199.989 6.81226 198.563C7.09297 198.155 7.48092 197.832 7.93334 197.63C8.38577 197.429 8.88511 197.356 9.37636 197.419C9.86761 197.483 10.3317 197.682 10.7175 197.992C11.1033 198.303 11.3958 198.714 11.5628 199.181C11.2469 197.43 11.1111 195.652 11.1577 193.874C11.1972 192.368 11.4817 190.666 12.7336 189.828C14.1859 188.857 16.2794 189.628 17.3358 191.02C18.3922 192.412 18.6788 194.222 18.9323 195.951C18.7254 195.219 18.7052 194.447 18.8736 193.706C19.0421 192.964 19.3938 192.277 19.8967 191.706C20.3995 191.136 21.0374 190.701 21.7519 190.44C22.4664 190.18 23.2348 190.103 23.9867 190.217C26.1139 190.538 27.7803 192.38 28.4305 194.431C29.0807 196.481 28.8777 198.705 28.4592 200.815C27.9685 203.29 27.1721 205.744 25.7382 207.82C24.3044 209.895 22.1746 211.569 19.7036 212.076L19.5579 212.066Z"
      fill="#F2F2F2"
    />
    <path
      d="M334.273 45.0228C334.273 54.2524 331.404 63.2539 326.064 70.7816C320.724 78.3093 313.175 83.991 304.464 87.0405C304.187 87.1371 303.906 87.2337 303.624 87.3218V42.1007H245.363C245.38 41.8194 245.401 41.5381 245.426 41.261H303.624V32.4275C303.624 31.8708 303.403 31.337 303.009 30.9434C302.616 30.5498 302.082 30.3285 301.525 30.3283H247.752C247.848 30.047 247.949 29.7657 248.058 29.4886C251.701 19.7107 258.664 11.5234 267.73 6.35732C276.796 1.19119 287.389 -0.625408 297.658 1.22489C307.927 3.07519 317.219 8.47475 323.912 16.4803C330.605 24.4858 334.272 34.5882 334.273 45.0228Z"
      fill="#F2F2F2"
    />
    <path
      d="M301.525 29.4886H97.0622C96.283 29.4895 95.536 29.7994 94.985 30.3503C94.4341 30.9013 94.1242 31.6483 94.1233 32.4275V170.975C94.1242 171.754 94.4341 172.501 94.985 173.052C95.536 173.603 96.283 173.913 97.0622 173.914H301.525C302.304 173.913 303.051 173.603 303.602 173.052C304.153 172.501 304.463 171.754 304.464 170.975V32.4275C304.463 31.6483 304.153 30.9013 303.602 30.3503C303.051 29.7994 302.304 29.4895 301.525 29.4886ZM303.624 170.975C303.624 171.532 303.403 172.066 303.009 172.459C302.616 172.853 302.082 173.074 301.525 173.074H97.0622C96.5055 173.074 95.9717 172.853 95.5781 172.459C95.1844 172.066 94.9632 171.532 94.963 170.975V32.4275C94.9632 31.8708 95.1844 31.337 95.5781 30.9434C95.9717 30.5497 96.5055 30.3285 97.0622 30.3283H301.525C302.082 30.3285 302.616 30.5497 303.009 30.9434C303.403 31.337 303.624 31.8708 303.624 32.4275V170.975Z"
      fill="#3F3D56"
    />
    <path
      d="M304.044 41.2609H94.5432V42.1006H304.044V41.2609Z"
      fill="#3F3D56"
    />
    <path
      d="M101.68 38.3052C103.072 38.3052 104.199 37.1774 104.199 35.7861C104.199 34.3949 103.072 33.2671 101.68 33.2671C100.289 33.2671 99.1614 34.3949 99.1614 35.7861C99.1614 37.1774 100.289 38.3052 101.68 38.3052Z"
      fill="#212121"
    />
    <path
      d="M108.923 38.3052C110.314 38.3052 111.442 37.1774 111.442 35.7861C111.442 34.3949 110.314 33.2671 108.923 33.2671C107.531 33.2671 106.404 34.3949 106.404 35.7861C106.404 37.1774 107.531 38.3052 108.923 38.3052Z"
      fill="#212121"
    />
    <path
      d="M116.165 38.3052C117.556 38.3052 118.684 37.1774 118.684 35.7861C118.684 34.3949 117.556 33.2671 116.165 33.2671C114.774 33.2671 113.646 34.3949 113.646 35.7861C113.646 37.1774 114.774 38.3052 116.165 38.3052Z"
      fill="#212121"
    />
    <path
      d="M151.642 58.4576H114.696C113.917 58.4585 113.17 58.7684 112.619 59.3194C112.068 59.8703 111.758 60.6174 111.757 61.3965V98.3426C111.758 99.1218 112.068 99.8688 112.619 100.42C113.17 100.971 113.917 101.281 114.696 101.281H151.642C152.421 101.281 153.168 100.971 153.719 100.42C154.27 99.8688 154.58 99.1218 154.581 98.3426V61.3965C154.58 60.6174 154.27 59.8703 153.719 59.3194C153.168 58.7684 152.421 58.4585 151.642 58.4576ZM153.741 98.3426C153.741 98.8993 153.52 99.4331 153.126 99.8267C152.732 100.22 152.198 100.442 151.642 100.442H114.696C114.139 100.442 113.605 100.22 113.212 99.8267C112.818 99.4331 112.597 98.8993 112.597 98.3426V61.3965C112.597 60.8399 112.818 60.306 113.212 59.9124C113.605 59.5188 114.139 59.2975 114.696 59.2973H151.642C152.198 59.2975 152.732 59.5188 153.126 59.9124C153.52 60.306 153.741 60.8399 153.741 61.3965V98.3426Z"
      fill="#3F3D56"
    />
    <path
      d="M217.977 58.6675H181.03C180.307 58.6689 179.614 58.9569 179.102 59.4684C178.591 59.9799 178.303 60.6732 178.302 61.3965V98.3426C178.303 99.0659 178.591 99.7592 179.102 100.271C179.614 100.782 180.307 101.07 181.03 101.072H217.977C218.7 101.07 219.393 100.782 219.905 100.271C220.416 99.7592 220.704 99.0659 220.706 98.3426V61.3965C220.704 60.6732 220.416 59.9799 219.905 59.4684C219.393 58.9569 218.7 58.6689 217.977 58.6675Z"
      fill="url(#paint0_linear_30_800)"
    />
    <path
      d="M284.312 58.6675H247.366C246.642 58.6689 245.949 58.9569 245.438 59.4684C244.926 59.9799 244.638 60.6732 244.637 61.3965V98.3426C244.638 99.0659 244.926 99.7592 245.438 100.271C245.949 100.782 246.642 101.07 247.366 101.072H284.312C285.035 101.07 285.728 100.782 286.24 100.271C286.751 99.7592 287.039 99.0659 287.041 98.3426V61.3965C287.039 60.6732 286.751 59.9799 286.24 59.4684C285.728 58.9569 285.035 58.6689 284.312 58.6675Z"
      fill="#E6E6E6"
    />
    <path
      d="M151.642 114.087H114.696C113.972 114.088 113.279 114.376 112.767 114.887C112.256 115.399 111.968 116.092 111.967 116.816V153.762C111.968 154.485 112.256 155.178 112.767 155.69C113.279 156.201 113.972 156.489 114.696 156.491H151.642C152.365 156.489 153.058 156.201 153.57 155.69C154.081 155.178 154.369 154.485 154.371 153.762V116.816C154.369 116.092 154.081 115.399 153.57 114.887C153.058 114.376 152.365 114.088 151.642 114.087Z"
      fill="#E6E6E6"
    />
    <path
      d="M217.977 114.087H181.03C180.307 114.088 179.614 114.376 179.102 114.887C178.591 115.399 178.303 116.092 178.302 116.816V153.762C178.303 154.485 178.591 155.178 179.102 155.69C179.614 156.201 180.307 156.489 181.03 156.491H217.977C218.7 156.489 219.393 156.201 219.905 155.69C220.416 155.178 220.704 154.485 220.706 153.762V116.816C220.704 116.092 220.416 115.399 219.905 114.887C219.393 114.376 218.7 114.088 217.977 114.087Z"
      fill="url(#paint1_linear_30_800)"
    />
    <path
      d="M284.312 114.087H247.366C246.642 114.088 245.949 114.376 245.438 114.887C244.926 115.399 244.638 116.092 244.637 116.816V153.762C244.638 154.485 244.926 155.178 245.438 155.69C245.949 156.201 246.642 156.489 247.366 156.491H284.312C285.035 156.489 285.728 156.201 286.24 155.69C286.751 155.178 287.039 154.485 287.041 153.762V116.816C287.039 116.092 286.751 115.399 286.24 114.887C285.728 114.376 285.035 114.088 284.312 114.087Z"
      fill="#E6E6E6"
    />
    <path
      d="M142.615 120.174H105.669C104.945 120.174 104.252 119.886 103.74 119.374C103.229 118.863 102.941 118.169 102.94 117.445V80.4993C102.941 79.7758 103.229 79.0821 103.74 78.5705C104.252 78.0589 104.945 77.7712 105.669 77.7703H142.615C143.338 77.7712 144.032 78.0589 144.544 78.5705C145.055 79.0821 145.343 79.7758 145.344 80.4993V117.445C145.343 118.169 145.055 118.863 144.544 119.374C144.032 119.886 143.338 120.174 142.615 120.174Z"
      fill="url(#paint2_linear_30_800)"
    />
    <path
      d="M85.9885 207.119L90.909 205.608L87.426 185.91L80.1636 188.139L85.9885 207.119Z"
      fill="#FBBEBE"
    />
    <path
      d="M101.802 207.265L86.3371 212.011L84.5034 206.036L93.9932 203.124C94.7779 202.883 95.6023 202.799 96.4194 202.877C97.2364 202.955 98.0302 203.193 98.7553 203.577C99.4804 203.962 100.123 204.486 100.645 205.118C101.168 205.751 101.561 206.481 101.802 207.265Z"
      fill="#212121"
    />
    <path
      d="M44.0055 207.232L49.1527 207.232L51.6013 187.378L44.0046 187.379L44.0055 207.232Z"
      fill="#FBBEBE"
    />
    <path
      d="M59.0796 212.011L42.9028 212.011L42.9025 205.761L52.8292 205.761C53.6499 205.761 54.4627 205.922 55.221 206.236C55.9793 206.55 56.6684 207.011 57.2488 207.591C57.8292 208.172 58.2896 208.861 58.6037 209.619C58.9178 210.377 59.0796 211.19 59.0796 212.011Z"
      fill="#212121"
    />
    <path
      d="M43.6361 149.681C43.2133 149.31 42.8768 148.851 42.6505 148.337C42.4242 147.822 42.3135 147.264 42.3262 146.701C42.3389 146.139 42.4748 145.587 42.7242 145.082C42.9735 144.578 43.3304 144.135 43.7696 143.784L47.7604 93.5312L55.8763 95.559L49.3781 144.579C49.9192 145.356 50.1565 146.304 50.045 147.245C49.9335 148.185 49.481 149.052 48.7732 149.68C48.0654 150.309 47.1516 150.657 46.2048 150.657C45.258 150.657 44.344 150.31 43.6361 149.681Z"
      fill="#FBBEBE"
    />
    <path
      d="M59.8891 74.0406C65.5842 74.0406 70.2009 69.4239 70.2009 63.7289C70.2009 58.0338 65.5842 53.4171 59.8891 53.4171C54.1941 53.4171 49.5774 58.0338 49.5774 63.7289C49.5774 69.4239 54.1941 74.0406 59.8891 74.0406Z"
      fill="#FBBEBE"
    />
    <path
      d="M50.9225 91.9855C48.5958 88.7913 48.5241 84.3919 51.0305 81.3366C52.6661 79.3427 55.4021 77.7472 59.9699 77.7472C72.1453 77.7472 76.7636 87.4036 76.7636 87.4036C76.7636 87.4036 81.8017 96.6401 78.8628 105.037C75.9239 113.434 75.9239 114.273 75.9239 114.273L56.6112 112.594C56.6112 112.594 59.8693 104.268 50.9225 91.9855Z"
      fill="#E6E6E6"
    />
    <path
      d="M44.9675 100.344L49.128 86.7325C49.4067 85.8211 49.8821 84.982 50.5207 84.2745C51.1593 83.567 51.9455 83.0084 52.8237 82.6382C53.702 82.2679 54.6508 82.0951 55.6031 82.1319C56.5555 82.1686 57.4882 82.4141 58.3352 82.851C59.8048 83.6121 60.93 84.9036 61.4826 86.4637C62.0352 88.0237 61.9738 89.7355 61.311 91.2519L56.0217 103.298L44.9675 100.344Z"
      fill="#E6E6E6"
    />
    <path
      d="M75.5039 112.174L91.8778 196.982L83.0611 199.501L61.6492 143.662L51.9928 200.761L42.7563 202.02C42.7563 202.02 38.7047 126.472 56.6111 112.594L75.5039 112.174Z"
      fill="#212121"
    />
    <path
      d="M99.0696 108.2C98.9202 108.378 98.7851 108.567 98.6655 108.766L77.8686 109.774L73.864 97.5488L66.9106 100.854L73.455 119.063L99.1754 114.033C99.7798 114.692 100.571 115.153 101.443 115.352C102.315 115.551 103.228 115.48 104.059 115.149C104.89 114.817 105.6 114.24 106.095 113.495C106.59 112.749 106.847 111.871 106.831 110.976C106.814 110.082 106.526 109.213 106.004 108.486C105.483 107.759 104.752 107.209 103.909 106.907C103.067 106.606 102.152 106.568 101.288 106.799C100.423 107.03 99.6497 107.518 99.0696 108.2Z"
      fill="#FBBEBE"
    />
    <path
      d="M64.0014 88.6229C63.89 87.6763 63.9879 86.7168 64.2881 85.8123C64.5883 84.9077 65.0836 84.0801 65.7389 83.388C66.3941 82.6959 67.1934 82.1561 68.0802 81.8069C68.967 81.4577 69.9197 81.3076 70.871 81.3671C72.5226 81.4731 74.0721 82.2032 75.2052 83.4095C76.3384 84.6157 76.9705 86.2077 76.9732 87.8627V101.018L65.6644 102.758L64.0014 88.6229Z"
      fill="#E6E6E6"
    />
    <path
      d="M62.1566 74.134C60.6089 74.1272 59.415 72.4978 59.4844 70.9516C59.5537 69.4054 60.5922 68.0451 61.8433 67.134C63.0944 66.2229 64.5617 65.668 65.9569 64.9981C67.3521 64.3283 68.7352 63.4927 69.5966 62.2069C70.117 61.3653 70.4277 60.4111 70.5024 59.4244C70.5772 58.4378 70.4139 57.4476 70.0262 56.5372C69.2246 54.7164 67.8482 53.2086 66.1078 52.2447C63.5225 50.7314 60.462 50.2475 57.536 50.8894C54.61 51.5313 52.0331 53.2519 50.3188 55.7085L48.552 60.519C46.7518 62.6838 46.4663 65.8986 47.5729 68.4875C48.6795 71.0764 51.0358 73.0242 53.6947 73.9502C56.3923 74.8171 59.2801 74.9037 62.0248 74.2"
      fill="#212121"
    />
    <path
      d="M52.7317 58.1128C51.9722 56.8955 50.6558 56.1214 49.2949 55.667C47.7183 55.1407 46.0415 54.9853 44.395 55.2131C42.7486 55.4408 41.1769 56.0455 39.8024 56.98C38.4278 57.9146 37.2876 59.1538 36.4703 60.6011C35.6531 62.0484 35.1809 63.6649 35.0906 65.3246C34.9464 67.9756 35.7765 70.568 36.2643 73.1778C36.752 75.7875 36.8491 78.67 35.4101 80.9012C34.3141 82.6006 32.4864 83.6706 30.6824 84.5843C29.1788 85.3457 27.5524 86.0603 25.8739 85.9086C24.1953 85.7569 22.5082 84.4274 22.5528 82.7425C21.9908 83.9506 21.6114 85.2354 21.4269 86.5549C21.3088 87.8798 21.6354 89.3095 22.5924 90.2335C23.9834 91.5764 26.1873 91.4781 28.0989 91.1884C32.2373 90.561 36.4278 89.385 39.6973 86.7715C42.9667 84.158 45.1362 79.8546 44.2752 75.7585C43.9155 74.0475 43.0703 72.4854 42.3872 70.8759C41.7042 69.2664 41.171 67.5058 41.4848 65.7857C41.6705 64.8996 42.0484 64.065 42.592 63.3409C43.1355 62.6167 43.8314 62.0208 44.6304 61.595C46.2464 60.7547 48.0955 60.4743 49.888 60.7977C51.0631 60.9905 52.5305 61.29 53.2275 60.3244C53.4122 60.0185 53.5065 59.6665 53.4996 59.3093C53.4926 58.952 53.3846 58.604 53.1882 58.3055C52.786 57.7151 52.2739 57.2077 51.6798 56.811"
      fill="#212121"
    />
    <path
      d="M130.382 212.684H1.36732C1.30155 212.685 1.23639 212.672 1.17557 212.647C1.11475 212.622 1.05947 212.585 1.0129 212.539C0.966327 212.492 0.929374 212.437 0.904161 212.376C0.878948 212.315 0.865967 212.25 0.865967 212.185C0.865967 212.119 0.878948 212.054 0.904161 211.993C0.929374 211.932 0.966327 211.877 1.0129 211.831C1.05947 211.784 1.11475 211.747 1.17557 211.722C1.23639 211.697 1.30155 211.684 1.36732 211.685H130.382C130.448 211.684 130.513 211.697 130.574 211.722C130.635 211.747 130.69 211.784 130.737 211.831C130.783 211.877 130.82 211.932 130.845 211.993C130.87 212.054 130.883 212.119 130.883 212.185C130.883 212.25 130.87 212.315 130.845 212.376C130.82 212.437 130.783 212.492 130.737 212.539C130.69 212.585 130.635 212.622 130.574 212.647C130.513 212.672 130.448 212.685 130.382 212.684Z"
      fill="#212121"
    />
  </g>
  <defs>
    <linearGradient
      id="paint0_linear_30_800"
      x1="199.136"
      y1="58.4348"
      x2="199.136"
      y2="109.991"
      gradientUnits="userSpaceOnUse"
    >
      <stop stop-color="#EB7C49" />
      <stop offset="1" stop-color="#F04F52" />
    </linearGradient>
    <linearGradient
      id="paint1_linear_30_800"
      x1="199.136"
      y1="113.854"
      x2="199.136"
      y2="165.41"
      gradientUnits="userSpaceOnUse"
    >
      <stop stop-color="#EB7C49" />
      <stop offset="1" stop-color="#F04F52" />
    </linearGradient>
    <linearGradient
      id="paint2_linear_30_800"
      x1="123.774"
      y1="77.5376"
      x2="123.774"
      y2="129.094"
      gradientUnits="userSpaceOnUse"
    >
      <stop stop-color="#EB7C49" />
      <stop offset="1" stop-color="#F04F52" />
    </linearGradient>
    <clipPath id="clip0_30_800">
      <rect
        width="333.405"
        height="212.165"
        fill="white"
        transform="translate(0.867676 0.519531)"
      />
    </clipPath>
  </defs>
</svg>
