<svg width="9" height="9" viewBox="0 0 9 9" fill="none" xmlns="http://www.w3.org/2000/svg">
<path d="M8.03219 5.10943H5.1258V7.94628C5.1258 8.09676 5.06456 8.24107 4.95555 8.34748C4.84654 8.45388 4.69869 8.51365 4.54452 8.51365C4.39036 8.51365 4.24251 8.45388 4.1335 8.34748C4.02449 8.24107 3.96325 8.09676 3.96325 7.94628V5.10943H1.05686C0.902699 5.10943 0.754849 5.04965 0.645838 4.94325C0.536828 4.83685 0.475586 4.69254 0.475586 4.54206C0.475586 4.39158 0.536828 4.24727 0.645838 4.14087C0.754849 4.03447 0.902699 3.97469 1.05686 3.97469H3.96325V1.13784C3.96325 0.98736 4.02449 0.843047 4.1335 0.736644C4.24251 0.630241 4.39036 0.570465 4.54452 0.570465C4.69869 0.570465 4.84654 0.630241 4.95555 0.736644C5.06456 0.843047 5.1258 0.98736 5.1258 1.13784V3.97469H8.03219C8.18635 3.97469 8.3342 4.03447 8.44321 4.14087C8.55222 4.24727 8.61346 4.39158 8.61346 4.54206C8.61346 4.69254 8.55222 4.83685 8.44321 4.94325C8.3342 5.04965 8.18635 5.10943 8.03219 5.10943Z" fill="white"/>
</svg>
