<svg width="16" height="16" viewBox="0 0 16 16" fill="none" xmlns="http://www.w3.org/2000/svg">
<circle cx="8.06558" cy="7.98702" r="7.19546" fill="url(#paint0_linear_128_268)"/>
<path d="M8.06548 8.7865C7.42936 8.7865 6.8193 8.53381 6.36949 8.084C5.91969 7.6342 5.66699 7.02414 5.66699 6.38802C5.66699 5.7519 5.91969 5.14184 6.36949 4.69203C6.8193 4.24223 7.42936 3.98953 8.06548 3.98953C8.7016 3.98953 9.31166 4.24223 9.76146 4.69203C10.2113 5.14184 10.464 5.7519 10.464 6.38802C10.464 7.02414 10.2113 7.6342 9.76146 8.084C9.31166 8.53381 8.7016 8.7865 8.06548 8.7865ZM8.06548 7.58726C8.38354 7.58726 8.68857 7.46091 8.91347 7.23601C9.13837 7.01111 9.26472 6.70608 9.26472 6.38802C9.26472 6.06996 9.13837 5.76493 8.91347 5.54003C8.68857 5.31512 8.38354 5.18878 8.06548 5.18878C7.74742 5.18878 7.44239 5.31512 7.21749 5.54003C6.99258 5.76493 6.86624 6.06996 6.86624 6.38802C6.86624 6.70608 6.99258 7.01111 7.21749 7.23601C7.44239 7.46091 7.74742 7.58726 8.06548 7.58726ZM9.66447 8.68657V11.9845L8.06548 10.3855L6.46649 11.9845V8.68657C6.93504 9.01492 7.49333 9.19106 8.06548 9.19106C8.63763 9.19106 9.19591 9.01492 9.66447 8.68657Z" fill="white"/>
<defs>
<linearGradient id="paint0_linear_128_268" x1="7.94087" y1="0.712569" x2="7.94087" y2="18.2096" gradientUnits="userSpaceOnUse">
<stop stop-color="#EB7C49"/>
<stop offset="1" stop-color="#F04F52"/>
</linearGradient>
</defs>
</svg>
