<svg width="242" height="170" viewBox="0 0 242 170" fill="none" xmlns="http://www.w3.org/2000/svg">
<g clip-path="url(#clip0_30_854)">
<path d="M119.242 83.9021C119.242 92.5957 112.195 99.6432 103.501 99.6432C94.8076 99.6432 87.7601 92.5957 87.7601 83.9021C87.7601 75.2085 94.8076 68.161 103.501 68.161C112.195 68.161 119.242 75.2085 119.242 83.9021Z" fill="url(#paint0_linear_30_854)" stroke="url(#paint1_linear_30_854)" stroke-width="0.259387"/>
<path d="M103.358 112.603L103.488 83.8147" stroke="#121212" stroke-width="0.518774" stroke-miterlimit="10"/>
<path d="M103.488 87.8858C105.736 87.8858 107.559 86.0631 107.559 83.8146C107.559 81.5662 105.736 79.7435 103.488 79.7435C101.239 79.7435 99.4165 81.5662 99.4165 83.8146C99.4165 86.0631 101.239 87.8858 103.488 87.8858Z" fill="#121212"/>
<path d="M103.407 101.558C103.407 101.558 102.882 89.0463 90.9529 90.4464L103.407 101.558Z" fill="#121212"/>
<path d="M52.7574 52.0383C52.7574 60.7319 45.7099 67.7794 37.0163 67.7794C28.3227 67.7794 21.2752 60.7319 21.2752 52.0383C21.2752 43.3448 28.3227 36.2972 37.0163 36.2972C45.7099 36.2972 52.7574 43.3448 52.7574 52.0383Z" fill="url(#paint2_linear_30_854)" stroke="url(#paint3_linear_30_854)" stroke-width="0.259387"/>
<path d="M36.1179 110.629L37.0313 52.0208" stroke="#121212" stroke-width="0.518774" stroke-miterlimit="10"/>
<path d="M37.0319 56.0919C39.2803 56.0919 41.103 54.2691 41.103 52.0207C41.103 49.7723 39.2803 47.9495 37.0319 47.9495C34.7834 47.9495 32.9607 49.7723 32.9607 52.0207C32.9607 54.2691 34.7834 56.0919 37.0319 56.0919Z" fill="#121212"/>
<path d="M36.7729 68.5988C36.7729 68.5988 36.3863 56.0824 24.4424 57.3504L36.7729 68.5988Z" fill="#121212"/>
<path d="M36.1357 109.51C36.1357 109.51 39.1274 85.4993 24.0259 84.1006" stroke="#121212" stroke-width="0.518774" stroke-miterlimit="10"/>
<path d="M24.026 88.1718C26.2745 88.1718 28.0972 86.349 28.0972 84.1006C28.0972 81.8521 26.2745 80.0294 24.026 80.0294C21.7776 80.0294 19.9548 81.8521 19.9548 84.1006C19.9548 86.349 21.7776 88.1718 24.026 88.1718Z" fill="#121212"/>
<path d="M86.8878 16.8044C86.8878 25.498 79.8402 32.5455 71.1467 32.5455C62.4531 32.5455 55.4056 25.498 55.4056 16.8044C55.4056 8.11088 62.4531 1.06335 71.1467 1.06335C79.8402 1.06335 86.8878 8.11088 86.8878 16.8044Z" fill="url(#paint4_linear_30_854)" stroke="url(#paint5_linear_30_854)" stroke-width="0.259387"/>
<path d="M71.1565 112.889V16.8626" stroke="#121212" stroke-width="0.518774" stroke-miterlimit="10"/>
<path d="M71.1564 20.8885C73.4048 20.8885 75.2275 19.0658 75.2275 16.8173C75.2275 14.5689 73.4048 12.7462 71.1564 12.7462C68.9079 12.7462 67.0852 14.5689 67.0852 16.8173C67.0852 19.0658 68.9079 20.8885 71.1564 20.8885Z" fill="#121212"/>
<path d="M58.652 90.3641C60.9004 90.3641 62.7232 88.5414 62.7232 86.293C62.7232 84.0445 60.9004 82.2218 58.652 82.2218C56.4035 82.2218 54.5808 84.0445 54.5808 86.293C54.5808 88.5414 56.4035 90.3641 58.652 90.3641Z" fill="#121212"/>
<path d="M71.1564 37.6129C71.1564 37.6129 70.5748 25.104 58.6521 26.558L71.1564 37.6129Z" fill="#121212"/>
<path d="M71.1564 73.0742C71.1564 73.0742 70.5748 60.5653 58.6521 62.0193L71.1564 73.0742Z" fill="#121212"/>
<path d="M71.1564 111.77C71.1564 111.77 73.7736 87.4562 58.6521 86.293" stroke="#121212" stroke-width="0.518774" stroke-miterlimit="10"/>
<path d="M83.911 52.175C86.1595 52.175 87.9822 50.3523 87.9822 48.1038C87.9822 45.8554 86.1595 44.0327 83.911 44.0327C81.6626 44.0327 79.8398 45.8554 79.8398 48.1038C79.8398 50.3523 81.6626 52.175 83.911 52.175Z" fill="#121212"/>
<path d="M71.4065 72.2842C71.4065 72.2842 68.7893 49.2671 83.9108 48.1039" stroke="#121212" stroke-width="0.518774" stroke-miterlimit="10"/>
<path d="M105.1 38.908C103.971 38.908 102.868 38.5733 101.929 37.9463C100.991 37.3193 100.259 36.428 99.8274 35.3853C99.3955 34.3426 99.2825 33.1952 99.5027 32.0882C99.7229 30.9813 100.266 29.9645 101.064 29.1664C101.863 28.3683 102.879 27.8248 103.986 27.6046C105.093 27.3845 106.241 27.4975 107.283 27.9294C108.326 28.3613 109.217 29.0927 109.844 30.0311C110.471 30.9696 110.806 32.0729 110.806 33.2015C110.804 34.7145 110.203 36.1649 109.133 37.2347C108.063 38.3046 106.613 38.9063 105.1 38.908ZM105.1 28.0138C104.074 28.0138 103.071 28.318 102.217 28.8881C101.364 29.4581 100.699 30.2683 100.307 31.2162C99.9141 32.1642 99.8114 33.2073 100.012 34.2136C100.212 35.2199 100.706 36.1443 101.431 36.8698C102.157 37.5953 103.081 38.0894 104.088 38.2896C105.094 38.4897 106.137 38.387 107.085 37.9944C108.033 37.6017 108.843 36.9368 109.413 36.0837C109.983 35.2306 110.287 34.2276 110.287 33.2015C110.286 31.8261 109.739 30.5075 108.766 29.535C107.794 28.5624 106.475 28.0153 105.1 28.0138Z" fill="#121212"/>
<path d="M15.3518 11.413C14.2231 11.413 13.1198 11.0784 12.1814 10.4513C11.243 9.82427 10.5116 8.93304 10.0796 7.89031C9.64774 6.84758 9.53473 5.70019 9.75492 4.59323C9.9751 3.48628 10.5186 2.46947 11.3167 1.6714C12.1147 0.873332 13.1315 0.329839 14.2385 0.109651C15.3455 -0.110536 16.4928 0.00247328 17.5356 0.434386C18.5783 0.866299 19.4695 1.59772 20.0966 2.53615C20.7236 3.47458 21.0583 4.57788 21.0583 5.70652C21.0566 7.21946 20.4548 8.66994 19.385 9.73975C18.3152 10.8096 16.8647 11.4113 15.3518 11.413ZM15.3518 0.518777C14.3257 0.518777 13.3227 0.823032 12.4696 1.39307C11.6165 1.96311 10.9516 2.77332 10.5589 3.72126C10.1663 4.66919 10.0636 5.71228 10.2637 6.7186C10.4639 7.72492 10.958 8.64929 11.6835 9.37481C12.409 10.1003 13.3334 10.5944 14.3397 10.7946C15.346 10.9948 16.3891 10.892 17.337 10.4994C18.285 10.1067 19.0952 9.44179 19.6652 8.58867C20.2353 7.73555 20.5395 6.73256 20.5395 5.70652C20.538 4.33113 19.9909 3.01252 19.0183 2.03997C18.0458 1.06742 16.7272 0.52035 15.3518 0.518777Z" fill="#121212"/>
<path d="M145.823 95.9732C144.695 95.9732 143.592 95.6385 142.653 95.0115C141.715 94.3845 140.983 93.4932 140.551 92.4505C140.119 91.4078 140.006 90.2604 140.227 89.1534C140.447 88.0465 140.99 87.0297 141.788 86.2316C142.586 85.4335 143.603 84.89 144.71 84.6698C145.817 84.4496 146.965 84.5627 148.007 84.9946C149.05 85.4265 149.941 86.1579 150.568 87.0963C151.195 88.0348 151.53 89.1381 151.53 90.2667C151.528 91.7796 150.927 93.2301 149.857 94.2999C148.787 95.3697 147.336 95.9715 145.823 95.9732ZM145.823 85.079C144.797 85.079 143.794 85.3832 142.941 85.9532C142.088 86.5233 141.423 87.3335 141.031 88.2814C140.638 89.2294 140.535 90.2725 140.735 91.2788C140.936 92.2851 141.43 93.2095 142.155 93.935C142.881 94.6605 143.805 95.1546 144.811 95.3548C145.818 95.5549 146.861 95.4522 147.809 95.0595C148.757 94.6669 149.567 94.002 150.137 93.1489C150.707 92.2957 151.011 91.2927 151.011 90.2667C151.01 88.8913 150.463 87.5727 149.49 86.6001C148.517 85.6276 147.199 85.0805 145.823 85.079Z" fill="#121212"/>
<path d="M121.7 51.3586C123.563 51.3586 125.072 49.8489 125.072 47.9865C125.072 46.1242 123.563 44.6145 121.7 44.6145C119.838 44.6145 118.328 46.1242 118.328 47.9865C118.328 49.8489 119.838 51.3586 121.7 51.3586Z" fill="#121212"/>
<path d="M148.158 112.833C150.02 112.833 151.53 111.324 151.53 109.461C151.53 107.599 150.02 106.089 148.158 106.089C146.296 106.089 144.786 107.599 144.786 109.461C144.786 111.324 146.296 112.833 148.158 112.833Z" fill="#3F3D56"/>
<path d="M121.57 109.85C121.5 137.511 99.0559 159.912 71.3792 159.912C43.7025 159.912 21.2579 137.511 21.188 109.85H121.57Z" fill="url(#paint6_linear_30_854)" stroke="url(#paint7_linear_30_854)" stroke-width="0.259387"/>
<path d="M214.246 130.875C239.045 118.331 248.98 88.058 236.436 63.2585L146.629 108.686C159.173 133.485 189.446 143.42 214.246 130.875Z" fill="#121212"/>
<path d="M216.065 37.2227C216.232 37.1092 216.393 36.988 216.55 36.8613C216.223 37.8411 215.696 38.7422 215.002 39.5072C214.839 39.686 214.666 39.8534 214.488 40.0153C214.484 39.9743 214.48 39.9333 214.478 39.8923C214.457 39.4955 214.486 39.0779 214.492 38.6692C215.11 38.3007 215.646 37.8082 216.065 37.2227Z" fill="url(#paint8_linear_30_854)"/>
<path d="M218.498 22.7509C218.876 22.1146 219.094 21.3964 219.133 20.6576C219.172 19.9188 219.032 19.1816 218.724 18.5089C218.416 17.8363 217.949 17.2483 217.364 16.7954C216.779 16.3424 216.093 16.038 215.365 15.9081C214.637 15.7782 213.888 15.8268 213.182 16.0496C212.477 16.2724 211.836 16.6629 211.314 17.1876C210.793 17.7123 210.406 18.3556 210.188 19.0623C209.969 19.7691 209.925 20.5183 210.059 21.2458C208.75 21.8692 207.655 22.8657 206.911 24.11C206.167 25.3543 205.808 26.7908 205.878 28.2389C205.253 29.1988 204.86 30.2914 204.732 31.4297C204.603 32.5681 204.742 33.7207 205.137 34.7959C205.533 35.8711 206.174 36.8392 207.009 37.623C207.844 38.4068 208.851 38.9848 209.95 39.3109C211.048 39.637 212.207 39.7023 213.335 39.5014C214.463 39.3006 215.528 38.8393 216.446 38.1541C217.364 37.469 218.11 36.5789 218.623 35.5549C219.137 34.5309 219.404 33.4011 219.404 32.2555C219.404 32.1381 219.401 32.0216 219.395 31.9056C220.308 30.5048 220.717 28.8349 220.554 27.1708C220.39 25.5068 219.666 23.9479 218.498 22.7509Z" fill="#121212"/>
<g opacity="0.1">
<path d="M209.999 20.084C210.019 20.074 210.039 20.0625 210.059 20.0526C210.045 19.9734 210.035 19.8928 210.024 19.8123C210.022 19.8291 210.019 19.8456 210.017 19.8625C210.008 19.9367 210.004 20.0103 209.999 20.084Z" fill="black"/>
<path d="M220.536 27.5767C220.402 28.6958 220.012 29.7688 219.395 30.7125C219.401 30.8285 219.404 30.945 219.404 31.0623C219.404 32.9628 218.669 34.7897 217.353 36.1605C216.037 37.5313 214.241 38.3396 212.342 38.4163C210.443 38.4929 208.588 37.832 207.166 36.5718C205.743 35.3115 204.863 33.5498 204.71 31.6555C204.694 31.8537 204.684 32.0535 204.684 32.2558C204.684 34.2078 205.46 36.0798 206.84 37.4601C208.22 38.8403 210.092 39.6157 212.044 39.6157C213.996 39.6157 215.868 38.8403 217.248 37.4601C218.629 36.0798 219.404 34.2078 219.404 32.2558C219.404 32.1385 219.401 32.022 219.395 31.906C220.288 30.5384 220.698 28.9122 220.562 27.2849C220.555 27.3821 220.547 27.4791 220.536 27.5767Z" fill="black"/>
<path d="M219.102 19.8073C219.023 20.4258 218.817 21.0215 218.499 21.5575C218.627 21.6897 218.749 21.8282 218.867 21.9695C219.118 21.2781 219.199 20.5364 219.102 19.8073Z" fill="black"/>
</g>
<path d="M188.839 101.715C188.875 102.133 188.988 102.542 189.174 102.919C189.269 103.106 189.406 103.269 189.576 103.393C189.746 103.517 189.942 103.6 190.15 103.633C190.531 103.636 190.905 103.527 191.226 103.321C191.881 102.979 192.561 102.581 192.903 101.926C193.235 101.291 193.187 100.534 193.131 99.8205L192.691 94.2084C191.631 94.1792 190.566 94.1797 189.507 94.2374C188.458 94.2946 188.274 94.5416 188.42 95.5658C188.71 97.6041 188.569 99.6746 188.839 101.715Z" fill="#FBBEBE"/>
<path d="M219.938 105.508L222.461 109.583C222.569 109.82 222.766 110.005 223.009 110.099C223.19 110.125 223.375 110.093 223.536 110.007C224.377 109.639 225.021 108.941 225.639 108.262C226.058 107.802 226.491 107.316 226.649 106.713C226.73 106.386 226.726 106.044 226.638 105.719C226.55 105.394 226.38 105.097 226.145 104.856C225.85 104.599 225.532 104.372 225.194 104.176C223.2 102.831 222.3 100.277 220.332 98.8946C220.218 98.8003 220.08 98.7408 219.933 98.7231C219.787 98.7317 219.645 98.7791 219.524 98.8605C218.627 99.3522 217.73 99.8438 216.833 100.335C215.668 100.973 216.037 101.048 216.922 101.734C218.225 102.746 219.039 104.16 219.938 105.508Z" fill="#FBBEBE"/>
<path d="M194.314 98.4688C193.945 98.3523 193.531 98.2474 193.182 98.4169C193.02 98.5165 192.882 98.6521 192.779 98.8134C192.677 98.9746 192.613 99.1571 192.593 99.3469C192.522 99.7214 192.531 100.11 192.427 100.477C192.252 101.095 191.781 101.578 191.327 102.032C191.143 102.251 190.905 102.417 190.636 102.513C190.272 102.606 189.886 102.436 189.516 102.501C189.3 102.556 189.104 102.669 188.948 102.828C188.792 102.987 188.683 103.185 188.632 103.401C188.536 103.835 188.521 104.284 188.589 104.723L188.875 107.851C188.926 108.232 188.929 108.618 188.887 109C188.781 109.688 188.382 110.291 188.16 110.951C187.938 111.61 187.95 112.452 188.505 112.871C188.699 113.001 188.922 113.079 189.154 113.099C189.386 113.12 189.62 113.082 189.833 112.988C190.258 112.797 190.634 112.511 190.933 112.153C192.632 110.301 193.39 107.792 194.711 105.653C195.049 105.159 195.35 104.641 195.614 104.104C195.796 103.688 195.911 103.248 196.058 102.819C196.26 102.246 196.503 101.688 196.785 101.15C196.942 100.842 197.544 100.1 197.418 99.7561C197.202 99.1692 194.886 98.6491 194.314 98.4688Z" fill="#2F2E41"/>
<path d="M224.946 107.096C224.564 107.813 223.926 108.36 223.159 108.628C222.936 108.688 222.729 108.795 222.551 108.942C222.435 109.085 222.362 109.258 222.344 109.442C222.325 109.625 222.36 109.809 222.445 109.973C222.621 110.296 222.849 110.587 223.121 110.835C224.646 112.449 225.654 114.482 226.017 116.672C226.108 117.225 226.167 117.812 226.497 118.264C227.143 119.147 228.519 119.089 229.49 118.586C229.787 118.45 230.044 118.241 230.239 117.979C230.401 117.695 230.504 117.381 230.541 117.056C230.717 116.251 230.814 115.43 230.831 114.606C230.812 113.051 230.228 111.565 229.949 110.035C229.553 107.863 229.751 105.524 228.74 103.562C228.639 103.332 228.48 103.132 228.278 102.982C228.025 102.849 227.741 102.785 227.456 102.797C226.542 102.76 225.628 102.752 224.713 102.773C224.457 102.779 224.157 102.811 224.025 103.031C223.889 103.255 224.008 103.541 224.127 103.775C224.693 104.882 225.61 105.768 224.946 107.096Z" fill="#2F2E41"/>
<path d="M203.244 68.1759C202.989 68.3868 202.815 68.6808 202.755 69.0065C202.694 69.3322 202.75 69.6688 202.913 69.9574C203.116 70.293 203.479 70.6055 203.399 70.9893C203.317 71.3878 202.827 71.5231 202.425 71.587C198.883 72.1504 195.436 73.1874 192.002 74.2214L188.399 75.306C187.361 75.6187 186.304 75.9399 185.406 76.5491C184.583 77.1103 183.931 77.8888 183.524 78.7982C183.112 79.7216 182.97 80.7387 182.823 81.7391C182.282 85.4202 181.591 89.1377 179.949 92.4762L188.686 95.341C189.533 95.652 190.41 95.8729 191.304 95.9998C192.155 96.0706 193.013 96.0291 193.853 95.8765C193.799 93.9255 193.766 91.9159 193.712 89.965C193.706 89.3488 193.666 88.7334 193.592 88.1216C193.461 87.1867 193.171 86.2772 193.081 85.3375C193.484 85.0051 194.069 85.0878 194.592 85.103C195.784 85.1377 196.947 84.7234 198.007 84.1773C199.067 83.6312 200.053 82.9505 201.107 82.3931C202.863 81.4644 204.86 80.8397 206.201 79.3735C205.518 81.9761 203.905 84.244 203.593 86.9165C203.277 89.6167 204.376 92.2592 205.452 94.7558L208.889 102.733C209.269 103.613 209.774 104.603 210.71 104.814C211.293 104.944 211.894 104.726 212.435 104.472C215.599 102.991 218.13 100.205 221.508 99.3144C221.256 97.6417 219.934 96.2589 219.186 94.7421C218.554 93.4627 218.348 92.0221 217.928 90.6589C217.507 89.2957 216.784 87.9143 215.513 87.2664C214.91 86.9587 214.097 86.691 214.04 86.0159C214.037 85.7991 214.082 85.5843 214.175 85.3881C214.627 84.2492 215.33 83.2264 216.231 82.3953C216.347 82.3059 216.439 82.1899 216.501 82.0571C216.534 81.9255 216.541 81.7887 216.521 81.6545C216.457 80.5684 217.039 79.5524 217.688 78.679C218.337 77.8057 219.086 76.9744 219.452 75.9498C220.081 74.188 219.457 72.2518 218.835 70.4875C218.584 69.7744 218.319 69.0392 217.803 68.4868C216.993 67.6206 215.733 67.371 214.554 67.2418C210.744 66.824 206.272 65.8252 203.244 68.1759Z" fill="#2F2E41"/>
<g opacity="0.1">
<path d="M202.847 68.703C202.976 68.6769 203.094 68.6169 203.192 68.5293C203.289 68.4416 203.36 68.3296 203.399 68.2047C203.409 68.1558 203.412 68.1058 203.408 68.0561C203.354 68.0959 203.298 68.1343 203.244 68.1762C203.069 68.315 202.932 68.4964 202.847 68.703Z" fill="black"/>
</g>
<path d="M209.266 40.5641C209.311 41.4344 209.049 42.3658 208.38 42.9243C208.165 43.1034 207.916 43.2392 207.709 43.4276C207.526 43.6161 207.386 43.8423 207.298 44.0905C207.211 44.3387 207.179 44.6029 207.204 44.8648C207.229 45.1266 207.311 45.3798 207.444 45.6068C207.577 45.8338 207.758 46.0291 207.974 46.1791C208.669 46.603 209.552 46.4886 210.354 46.3495C211.423 46.2 212.472 45.9265 213.478 45.5344C214.49 45.137 215.351 44.4315 215.94 43.5178C215.067 43.0311 214.591 42.0086 214.538 41.0103C214.485 40.0108 214.759 38.8765 214.126 38.1011C213.517 37.3544 212.37 37.3599 211.44 37.6162C210.974 37.7448 210.522 37.9228 210.055 38.0487C209.819 38.1125 209.037 38.1141 208.882 38.2884C208.601 38.6053 209.24 40.0606 209.266 40.5641Z" fill="#FBBEBE"/>
<path opacity="0.1" d="M209.266 40.5641C209.311 41.4344 209.049 42.3658 208.38 42.9243C208.165 43.1034 207.916 43.2392 207.709 43.4276C207.526 43.6161 207.386 43.8423 207.298 44.0905C207.211 44.3387 207.179 44.6029 207.204 44.8648C207.229 45.1266 207.311 45.3798 207.444 45.6068C207.577 45.8338 207.758 46.0291 207.974 46.1791C208.669 46.603 209.552 46.4886 210.354 46.3495C211.423 46.2 212.472 45.9265 213.478 45.5344C214.49 45.137 215.351 44.4315 215.94 43.5178C215.067 43.0311 214.591 42.0086 214.538 41.0103C214.485 40.0108 214.759 38.8765 214.126 38.1011C213.517 37.3544 212.37 37.3599 211.44 37.6162C210.974 37.7448 210.522 37.9228 210.055 38.0487C209.819 38.1125 209.037 38.1141 208.882 38.2884C208.601 38.6053 209.24 40.0606 209.266 40.5641Z" fill="black"/>
<path d="M211.944 40.5108C214.8 40.5108 217.116 38.1953 217.116 35.3389C217.116 32.4826 214.8 30.1671 211.944 30.1671C209.088 30.1671 206.772 32.4826 206.772 35.3389C206.772 38.1953 209.088 40.5108 211.944 40.5108Z" fill="#FBBEBE"/>
<path d="M195.613 75.0179C195.52 75.4265 195.355 75.8154 195.126 76.1662C194.523 77.2376 194.305 78.4832 194.508 79.6957C194.617 80.2969 194.873 80.8621 195.252 81.3413C195.631 81.8206 196.122 82.1992 196.682 82.4437C197.166 82.6343 197.766 82.6846 198.165 82.351C197.474 81.4521 197.438 80.225 197.479 79.0921C197.467 78.8805 197.518 78.6702 197.624 78.4871C197.653 78.4435 197.69 78.4062 197.733 78.3775C197.776 78.3488 197.825 78.3293 197.876 78.3202C197.927 78.3111 197.98 78.3127 198.031 78.3247C198.081 78.3367 198.129 78.359 198.17 78.3901C198.153 79.1035 198.291 79.8121 198.574 80.4669C198.684 80.7187 198.871 80.9968 199.145 80.9897C199.539 80.9794 199.645 80.446 199.63 80.0524C199.57 78.4484 199.491 76.7777 198.718 75.371C198.435 74.8561 198.057 74.3726 197.95 73.795C197.945 73.5947 197.875 73.4013 197.752 73.2434C197.667 73.1764 197.567 73.13 197.461 73.1078C197.016 72.982 195.962 72.5903 195.595 73.0074C195.201 73.4545 195.684 74.4833 195.613 75.0179Z" fill="#FBBEBE"/>
<path d="M203.293 47.5389C202.7 47.4722 202.232 48.015 201.907 48.5157C200.696 50.3825 199.825 52.4485 199.333 54.6184C199.082 55.726 198.925 56.8763 198.399 57.8828C198.273 58.0917 198.171 58.3146 198.095 58.547C198.05 58.9019 198.035 59.2599 198.048 59.6174C197.993 60.2637 197.611 60.8377 197.483 61.4735C197.407 61.8524 197.422 62.2447 197.354 62.6252C197.235 63.2916 196.869 63.8843 196.635 64.5195C196.222 65.6378 196.226 66.8656 195.922 68.0183C195.885 68.2083 195.803 68.3866 195.683 68.5383C195.477 68.7643 195.148 68.8195 194.879 68.9643C194.667 69.094 194.486 69.2674 194.346 69.473C194.207 69.6786 194.113 69.9116 194.071 70.1563C193.991 70.6459 193.982 71.1445 194.044 71.6367L194.282 74.696C194.527 74.5932 194.687 74.3159 194.891 74.146C195.265 73.8351 195.814 73.9048 196.293 73.9916L196.99 74.1179C197.703 74.2472 198.478 74.4119 198.935 74.9739C199.299 74.4055 199.091 73.5679 199.65 73.1897C199.831 73.0667 200.056 73.0251 200.248 72.9182C200.428 72.8014 200.578 72.6429 200.684 72.456C200.79 72.2691 200.849 72.0595 200.857 71.8448C200.868 71.4157 200.808 70.9877 200.681 70.5776C201.577 70.1996 202.132 69.2931 202.482 68.3864C202.868 67.2892 203.147 66.1573 203.315 65.0066C204.124 60.4603 204.863 55.8814 204.937 51.2643C204.988 50.492 204.903 49.7167 204.685 48.9739C204.43 48.245 204.061 47.6252 203.293 47.5389Z" fill="#E6E6E6"/>
<path d="M216.333 42.5878C215.479 43.4831 214.388 44.1168 213.188 44.4147C211.993 44.7085 210.773 44.8881 209.545 44.9513C209.167 45.0145 208.78 44.9811 208.418 44.854C208.071 44.6966 207.807 44.2854 207.949 43.9313C208.017 43.8218 208.063 43.6999 208.085 43.5725C208.079 43.2575 207.615 43.2314 207.314 43.3245C205.323 43.9402 203.414 45.1596 202.495 47.0301C201.976 48.0867 201.805 49.2749 201.64 50.4405C201.207 53.5064 200.775 56.6389 201.356 59.6803C201.665 61.3021 202.26 62.883 202.297 64.5336C202.318 65.4585 202.162 66.3799 202.169 67.3051C202.142 67.6291 202.228 67.9526 202.414 68.2194C202.558 68.3858 202.774 68.4907 202.874 68.6862C203.041 69.0131 202.817 69.4619 203.037 69.7558C203.308 70.1178 203.874 69.8579 204.247 69.6025C206.123 68.3281 208.39 67.7575 210.646 67.9915C213.357 68.2823 216.05 69.727 218.679 69.005C218.544 68.8077 218.427 68.5982 218.33 68.3793C217.02 64.0718 217.108 59.257 219.07 55.2043C219.74 53.8198 220.63 52.5003 220.886 50.9837C220.99 50.2743 220.998 49.5543 220.911 48.8427C220.773 47.4659 220.445 46.0777 219.696 44.9137C218.948 43.7497 217.71 42.7241 216.333 42.5878Z" fill="#E6E6E6"/>
<path d="M203.821 76.3492C203.61 76.9116 203.509 77.5092 203.523 78.1096C203.503 78.6839 203.532 79.2588 203.608 79.8284C203.652 80.3152 203.826 80.7813 204.111 81.1784C204.257 81.3738 204.457 81.5216 204.687 81.6033C204.917 81.685 205.165 81.6969 205.402 81.6374C205.588 81.5601 205.755 81.4422 205.889 81.2924C206.024 81.1425 206.124 80.9645 206.181 80.7713C206.292 80.385 206.374 79.9907 206.425 79.592C206.652 78.418 207.268 77.3162 207.279 76.1206C207.288 75.9788 207.265 75.8369 207.213 75.7046C206.989 75.2132 205.891 74.6617 205.354 74.7444C204.683 74.8479 204.064 75.7816 203.821 76.3492Z" fill="#FBBEBE"/>
<path opacity="0.1" d="M218.745 46.9543C218.643 47.9826 219.638 48.7576 220.031 49.7132C220.192 50.1594 220.283 50.6275 220.302 51.1013C220.579 54.3893 220.364 57.6965 220.149 60.989C220.11 62.0851 219.974 63.1757 219.743 64.2479C219.188 66.4979 217.822 68.4483 216.484 70.3402C216.024 71.0987 215.321 71.6789 214.488 71.986L209.896 74.2105C209.321 74.4646 208.774 74.779 208.265 75.1485C207.674 75.6116 207.21 76.2163 206.915 76.9066C206.024 76.4513 205.099 76.0426 204.208 75.5873C204 75.4808 203.766 75.3417 203.73 75.1103C203.682 74.7999 204.007 74.5807 204.23 74.3597C204.648 73.9462 204.777 73.3336 205.003 72.7911C205.742 71.0188 207.601 69.8844 208.271 68.0851C208.529 67.3936 208.607 66.6121 209.064 66.0326C209.326 65.7421 209.62 65.4826 209.94 65.2594C210.648 64.6585 211.299 63.9928 211.883 63.271C212.145 62.9987 212.36 62.6843 212.518 62.3408C212.719 61.8301 212.659 61.2607 212.669 60.7121C212.703 58.9162 213.515 57.2413 214.012 55.5152C214.481 53.8896 214.676 52.1845 215.29 50.6083C215.904 49.0321 217.108 47.378 218.745 46.9543Z" fill="black"/>
<path d="M219.342 46.9543C219.24 47.9826 220.234 48.7576 220.628 49.7132C220.788 50.1594 220.88 50.6275 220.899 51.1013C221.175 54.3893 220.961 57.6965 220.746 60.989C220.707 62.0851 220.571 63.1757 220.34 64.2479C219.785 66.4979 218.419 68.4483 217.081 70.3402C216.621 71.0987 215.917 71.6789 215.085 71.986L210.493 74.2105C209.918 74.4646 209.371 74.779 208.862 75.1485C208.271 75.6116 207.807 76.2163 207.512 76.9066C206.621 76.4513 205.696 76.0426 204.805 75.5873C204.596 75.4808 204.363 75.3417 204.327 75.1103C204.279 74.7999 204.603 74.5807 204.827 74.3597C205.244 73.9462 205.373 73.3336 205.599 72.7911C206.338 71.0188 208.197 69.8844 208.868 68.0851C209.125 67.3936 209.204 66.6121 209.661 66.0326C209.922 65.7421 210.216 65.4826 210.537 65.2594C211.245 64.6585 211.895 63.9928 212.479 63.271C212.742 62.9987 212.957 62.6843 213.115 62.3408C213.315 61.8301 213.255 61.2607 213.266 60.7121C213.3 58.9162 214.112 57.2413 214.609 55.5152C215.077 53.8896 215.273 52.1845 215.887 50.6083C216.501 49.0321 217.704 47.378 219.342 46.9543Z" fill="#E6E6E6"/>
<path d="M214.51 27.3437C212.916 27.149 211.303 27.483 209.917 28.2944C210.122 28.3021 210.327 28.316 210.533 28.3409C212.063 28.5257 213.497 29.1865 214.632 30.2299C215.767 31.2733 216.545 32.6468 216.858 34.1564C217.17 35.666 217 37.2355 216.373 38.6436C215.745 40.0516 214.691 41.227 213.359 42.0038C215.257 42.073 217.107 41.4064 218.524 40.1432C219.942 38.8799 220.816 37.1179 220.964 35.2253C221.113 33.3326 220.524 31.4558 219.321 29.9871C218.118 28.5183 216.394 27.5712 214.51 27.3437Z" fill="#121212"/>
<path d="M216.773 31.4351C216.952 31.8398 217.049 32.2759 217.059 32.7182C217.069 33.1605 216.992 33.6005 216.831 34.0129C216.797 33.9063 216.756 33.8015 216.711 33.699C215.801 31.6748 212.999 30.8369 210.451 31.8276C208.951 32.4112 207.874 33.4993 207.428 34.7087C206.78 32.7519 208.097 30.5036 210.514 29.5636C213.061 28.573 215.864 29.4109 216.773 31.4351Z" fill="#2F2E41"/>
<g opacity="0.1">
<path d="M216.788 33.8524C216.671 32.4317 216.143 31.0757 215.27 29.9487C214.397 28.8217 213.216 27.9721 211.87 27.5031C211.185 27.6718 210.527 27.9383 209.918 28.2944C210.122 28.3021 210.327 28.316 210.533 28.3409C212.011 28.5196 213.4 29.142 214.516 30.1259C215.633 31.1098 216.425 32.4091 216.788 33.8524Z" fill="#121212"/>
<path d="M217.982 28.4816C217.864 27.0609 217.337 25.7048 216.464 24.5778C215.591 23.4508 214.41 22.6013 213.064 22.1322C212.378 22.301 211.721 22.5675 211.112 22.9236C211.316 22.9312 211.521 22.9452 211.727 22.9701C213.205 23.1488 214.593 23.7711 215.71 24.755C216.827 25.739 217.619 27.0383 217.982 28.4816Z" fill="#121212"/>
<path d="M218.012 20.4597C217.941 19.6023 217.623 18.7839 217.096 18.1037C216.569 17.4236 215.856 16.9109 215.044 16.6277C214.63 16.7296 214.233 16.8904 213.865 17.1054C213.989 17.11 214.112 17.1184 214.237 17.1334C215.129 17.2412 215.967 17.6168 216.641 18.2107C217.315 18.8045 217.793 19.5886 218.012 20.4597Z" fill="#121212"/>
<path d="M220.765 32.8552C220.908 34.6201 220.41 36.3776 219.363 37.8056C218.316 39.2336 216.79 40.2366 215.063 40.6308C214.567 41.1703 213.993 41.633 213.36 42.0037C214.501 42.0454 215.636 41.821 216.675 41.3482C217.715 40.8754 218.63 40.1673 219.348 39.2797C220.067 38.3922 220.569 37.3496 220.815 36.2346C221.06 35.1195 221.043 33.9625 220.765 32.8552Z" fill="#121212"/>
</g>
<path d="M197.871 80.0128L196.92 51.2396" stroke="url(#paint9_linear_30_854)" stroke-width="0.518774" stroke-miterlimit="10"/>
<path d="M200.861 51.2395C200.861 53.4163 199.096 55.181 196.92 55.181C194.743 55.181 192.978 53.4163 192.978 51.2395C192.978 49.0627 194.743 47.298 196.92 47.298C199.096 47.298 200.861 49.0627 200.861 51.2395Z" fill="url(#paint10_linear_30_854)" stroke="url(#paint11_linear_30_854)" stroke-width="0.259387"/>
<path d="M197.341 68.6684L184.951 58.4234C187.755 58.0363 189.923 58.4684 191.6 59.3352C193.336 60.232 194.557 61.5994 195.414 63.0292C196.271 64.4595 196.763 65.9489 197.039 67.0822C197.178 67.6485 197.262 68.125 197.312 68.4594C197.324 68.5369 197.333 68.6068 197.341 68.6684Z" fill="url(#paint12_linear_30_854)" stroke="url(#paint13_linear_30_854)" stroke-width="0.259387"/>
</g>
<defs>
<linearGradient id="paint0_linear_30_854" x1="103.226" y1="67.8571" x2="103.226" y2="106.45" gradientUnits="userSpaceOnUse">
<stop stop-color="#EB7C49"/>
<stop offset="1" stop-color="#F04F52"/>
</linearGradient>
<linearGradient id="paint1_linear_30_854" x1="103.226" y1="67.8571" x2="103.226" y2="106.45" gradientUnits="userSpaceOnUse">
<stop stop-color="#EB7C49"/>
<stop offset="1" stop-color="#F04F52"/>
</linearGradient>
<linearGradient id="paint2_linear_30_854" x1="36.7412" y1="35.9933" x2="36.7412" y2="74.5859" gradientUnits="userSpaceOnUse">
<stop stop-color="#EB7C49"/>
<stop offset="1" stop-color="#F04F52"/>
</linearGradient>
<linearGradient id="paint3_linear_30_854" x1="36.7412" y1="35.9933" x2="36.7412" y2="74.5859" gradientUnits="userSpaceOnUse">
<stop stop-color="#EB7C49"/>
<stop offset="1" stop-color="#F04F52"/>
</linearGradient>
<linearGradient id="paint4_linear_30_854" x1="70.8716" y1="0.759416" x2="70.8716" y2="39.352" gradientUnits="userSpaceOnUse">
<stop stop-color="#EB7C49"/>
<stop offset="1" stop-color="#F04F52"/>
</linearGradient>
<linearGradient id="paint5_linear_30_854" x1="70.8716" y1="0.759416" x2="70.8716" y2="39.352" gradientUnits="userSpaceOnUse">
<stop stop-color="#EB7C49"/>
<stop offset="1" stop-color="#F04F52"/>
</linearGradient>
<linearGradient id="paint6_linear_30_854" x1="70.5071" y1="109.444" x2="70.5071" y2="170.627" gradientUnits="userSpaceOnUse">
<stop stop-color="#EB7C49"/>
<stop offset="1" stop-color="#F04F52"/>
</linearGradient>
<linearGradient id="paint7_linear_30_854" x1="70.5071" y1="109.444" x2="70.5071" y2="170.627" gradientUnits="userSpaceOnUse">
<stop stop-color="#EB7C49"/>
<stop offset="1" stop-color="#F04F52"/>
</linearGradient>
<linearGradient id="paint8_linear_30_854" x1="215.511" y1="40.0153" x2="215.511" y2="36.8613" gradientUnits="userSpaceOnUse">
<stop stop-color="#808080" stop-opacity="0.25"/>
<stop offset="0.53514" stop-color="#808080" stop-opacity="0.12"/>
<stop offset="1" stop-color="#808080" stop-opacity="0.1"/>
</linearGradient>
<linearGradient id="paint9_linear_30_854" x1="197.387" y1="51.0816" x2="197.387" y2="86.0653" gradientUnits="userSpaceOnUse">
<stop stop-color="#EB7C49"/>
<stop offset="1" stop-color="#F04F52"/>
</linearGradient>
<linearGradient id="paint10_linear_30_854" x1="196.849" y1="47.1236" x2="196.849" y2="57.0234" gradientUnits="userSpaceOnUse">
<stop stop-color="#EB7C49"/>
<stop offset="1" stop-color="#F04F52"/>
</linearGradient>
<linearGradient id="paint11_linear_30_854" x1="196.849" y1="47.1236" x2="196.849" y2="57.0234" gradientUnits="userSpaceOnUse">
<stop stop-color="#EB7C49"/>
<stop offset="1" stop-color="#F04F52"/>
</linearGradient>
<linearGradient id="paint12_linear_30_854" x1="190.963" y1="58.0916" x2="190.963" y2="71.2494" gradientUnits="userSpaceOnUse">
<stop stop-color="#EB7C49"/>
<stop offset="1" stop-color="#F04F52"/>
</linearGradient>
<linearGradient id="paint13_linear_30_854" x1="190.963" y1="58.0916" x2="190.963" y2="71.2494" gradientUnits="userSpaceOnUse">
<stop stop-color="#EB7C49"/>
<stop offset="1" stop-color="#F04F52"/>
</linearGradient>
<clipPath id="clip0_30_854">
<rect width="241.297" height="169.12" fill="white" transform="translate(0.56665)"/>
</clipPath>
</defs>
</svg>
